<?xml version="1.0" standalone="no"?><!DOCTYPE svg PUBLIC "-//W3C//DTD SVG 1.1//EN" "http://www.w3.org/Graphics/SVG/1.1/DTD/svg11.dtd"><svg t="1764675353319" class="icon" viewBox="0 0 1024 1024" version="1.1" xmlns="http://www.w3.org/2000/svg" p-id="9019" xmlns:xlink="http://www.w3.org/1999/xlink" width="256" height="256"><path d="M512 472a182.944 182.944 0 0 1-177.52-136.032C308.72 335.168 288 313.952 288 288s20.72-47.168 46.48-47.968C356.064 159.6 428.096 104 512 104s155.936 55.6 177.52 136.032C715.28 240.832 736 262.048 736 288s-20.72 47.168-46.48 47.968A182.944 182.944 0 0 1 512 472z m-172.464-152.32c3.84 0 8.048 2.384 8.896 6.048C366.048 402.432 433.312 456 512 456s145.952-53.568 163.584-130.272a7.808 7.808 0 0 1 8.768-6.144c2.032 0.272 2.832 0.416 3.648 0.416 17.648 0 32-14.352 32-32s-14.352-32-32-32c-0.816 0-1.616 0.144-2.384 0.256-4.08 0.464-9.088-1.936-10.032-5.984C657.952 173.568 590.688 120 512 120s-145.952 53.568-163.584 130.272a7.824 7.824 0 0 1-8.768 6.144C337.584 256.128 336.8 256 336 256c-17.648 0-32 14.352-32 32s14.352 32 32 32c0.8 0 1.584-0.128 2.352-0.24a7.248 7.248 0 0 1 1.184-0.08z" fill="#263238" p-id="9020"></path><path d="M512 376a87.392 87.392 0 0 1-62.224-25.776 8 8 0 0 1 11.312-11.312c13.6 13.6 31.68 21.088 50.912 21.088s37.312-7.488 50.912-21.088a8 8 0 0 1 11.312 11.312A87.392 87.392 0 0 1 512 376z" fill="#263238" p-id="9021"></path><path d="M576 480l54.752 23.456L720 476l-23.232-149.04c-2.832 0.64-5.744 1.04-8.768 1.04-1.584 0-3.088-0.288-4.624-0.464A176.336 176.336 0 0 1 576 451.84V480z" fill="#FFD740" p-id="9022"></path><path d="M630.752 511.472a8.288 8.288 0 0 1-3.152-0.64l-54.752-23.472A8 8 0 0 1 568 480v-28.176a8 8 0 0 1 5.072-7.456 167.696 167.696 0 0 0 102.496-118.64 7.808 7.808 0 0 1 8.768-6.144c2.048 0.272 2.848 0.416 3.664 0.416 2.24 0 4.512-0.272 7.008-0.832a8.016 8.016 0 0 1 9.68 6.56l23.232 149.024a8 8 0 0 1-5.552 8.88l-89.248 27.472a8.032 8.032 0 0 1-2.368 0.368zM584 474.72l47.2 20.24 79.824-24.56-20.976-134.432-0.544 0.016a183.808 183.808 0 0 1-105.52 121.232v17.504z" fill="#263238" p-id="9023"></path><path d="M448 480v-28.16a176.272 176.272 0 0 1-107.376-124.304c-1.536 0.176-3.04 0.464-4.624 0.464-3.024 0-5.936-0.4-8.768-1.04L304 476l89.248 27.456L448 480z" fill="#FFD740" p-id="9024"></path><path d="M393.248 511.472a8.368 8.368 0 0 1-2.352-0.352l-89.248-27.472a8 8 0 0 1-5.552-8.88l23.216-149.024a7.952 7.952 0 0 1 9.68-6.56c3.36 0.752 6.4 0.992 9.376 0.592 4.144-0.64 9.136 1.936 10.064 5.968a167.696 167.696 0 0 0 102.496 118.64 8 8 0 0 1 5.072 7.456V480a8 8 0 0 1-4.848 7.36l-54.752 23.472a8.224 8.224 0 0 1-3.152 0.64z m-80.272-41.088l79.824 24.56 47.2-20.24v-17.52a183.808 183.808 0 0 1-105.52-121.232l-0.56-0.016-20.944 134.448zM448 480h0.16H448z" fill="#263238" p-id="9025"></path><path d="M512 48c-97.2 0-176 78.8-176 176v64l176-136L688 288v-64c0-97.2-78.8-176-176-176z" fill="#FFD740" p-id="9026"></path><path d="M688 296a8 8 0 0 1-4.896-1.664L512 162.112l-171.104 132.224a7.92 7.92 0 0 1-8.416 0.864 8.032 8.032 0 0 1-4.48-7.2v-64c0-101.456 82.544-184 184-184S696 122.544 696 224v64a8 8 0 0 1-8 8zM512 144c1.712 0 3.456 0.56 4.896 1.664L680 271.696V224c0-92.64-75.36-168-168-168S344 131.36 344 224v47.696l163.104-126.032A8.08 8.08 0 0 1 512 144z" fill="#263238" p-id="9027"></path><path d="M688 152h-120l-56 48-56-48H336V208h112l64 48 64-48h112z" fill="#FF5252" p-id="9028"></path><path d="M512 264a7.984 7.984 0 0 1-4.8-1.6l-61.872-46.4H336a8 8 0 0 1-8-8V152A8 8 0 0 1 336 144h120c1.904 0 3.744 0.688 5.2 1.92L512 189.472l50.8-43.552A8.064 8.064 0 0 1 568 144H688a8 8 0 0 1 8 8V208a8 8 0 0 1-8 8h-109.328L516.8 262.4a7.984 7.984 0 0 1-4.8 1.6z m-168-64H448c1.728 0 3.424 0.56 4.8 1.6l59.2 44.4 59.2-44.4a8.048 8.048 0 0 1 4.8-1.6h104V160h-109.04l-53.744 46.08a8 8 0 0 1-10.4 0L453.04 160H344v40z" fill="#263238" p-id="9029"></path><path d="M544 888c0-106.032 85.968-192 192-192s192 85.968 192 192" fill="#FFD740" p-id="9030"></path><path d="M928 896a8 8 0 0 1-8-8C920 786.544 837.456 704 736 704s-184 82.544-184 184a8 8 0 0 1-16 0C536 777.712 625.712 688 736 688s200 89.712 200 200a8 8 0 0 1-8 8z" fill="#263238" p-id="9031"></path><path d="M624 680l9.872 8.88a221.984 221.984 0 0 1 48.56-18.128L624 624l-112 64-112-64-80 64v64l80-72 112 72 112-72z" fill="#FF5252" p-id="9032"></path><path d="M320 760a8 8 0 0 1-8-8v-64a8 8 0 0 1 3.008-6.256l80-64a8 8 0 0 1 8.976-0.704L512 678.784l108.032-61.728a8 8 0 0 1 8.976 0.704l58.432 46.752a8 8 0 0 1-10 12.496l-54.192-43.36-107.28 61.312a7.984 7.984 0 0 1-7.936 0l-107.28-61.312L328 691.84v42.192l66.64-59.984a8.016 8.016 0 0 1 9.68-0.784L512 742.48l107.664-69.216a8.016 8.016 0 0 1 9.68 0.784l9.856 8.88a8.016 8.016 0 0 1-10.72 11.904l-5.312-4.8-106.864 68.704a8.064 8.064 0 0 1-8.656 0l-106.864-68.704-75.456 67.92A7.904 7.904 0 0 1 320 760zM864 896a8 8 0 0 1-8-8c0-66.176-53.824-120-120-120s-120 53.824-120 120a8 8 0 0 1-16 0c0-74.992 61.008-136 136-136s136 61.008 136 136a8 8 0 0 1-8 8zM272 824h-96a8 8 0 0 1-8-8V512c0-1.456 0.384-2.88 1.136-4.112l48-80c2.88-4.848 10.848-4.848 13.712 0l48 80A7.744 7.744 0 0 1 280 512v304a8 8 0 0 1-8 8z m-88-16h80V514.224L224 447.552l-40 66.672V808z" fill="#263238" p-id="9033"></path><path d="M304 872H144c-13.232 0-24-10.768-24-24v-16c0-13.232 10.768-24 24-24h160c13.232 0 24 10.768 24 24v16c0 13.232-10.768 24-24 24z m-160-48c-4.4 0-8 3.6-8 8v16c0 4.4 3.6 8 8 8h160c4.4 0 8-3.6 8-8v-16c0-4.4-3.6-8-8-8H144zM304 549.712a8.016 8.016 0 0 1-3.152-15.36L440 474.72v-22.896a8 8 0 0 1 16 0V480a8 8 0 0 1-4.848 7.36l-144 61.712a7.824 7.824 0 0 1-3.152 0.64zM800 682.992a8 8 0 0 1-8-8v-19.856a111.84 111.84 0 0 0-67.888-102.944l-151.264-64.832A8 8 0 0 1 568 480v-28.176a8 8 0 0 1 16 0v22.896l146.416 62.752a127.872 127.872 0 0 1 77.584 117.664v19.856a8 8 0 0 1-8 8z" fill="#263238" p-id="9034"></path><path d="M232 984h-16c-13.232 0-24-10.768-24-24v-96a8 8 0 0 1 8-8h48a8 8 0 0 1 8 8v96c0 13.232-10.768 24-24 24z m-24-112V960c0 4.4 3.6 8 8 8h16c4.4 0 8-3.6 8-8v-88h-32zM368 896a8 8 0 0 1-8-8v-50.4a72.048 72.048 0 0 0-17.344-46.864l-28.736-33.536a8 8 0 1 1 12.16-10.4l28.736 33.536A88 88 0 0 1 376 837.6v50.4a8 8 0 0 1-8 8zM944 168h-64a8 8 0 0 1 0-16h64a8 8 0 0 1 0 16z" fill="#263238" p-id="9035"></path><path d="M912 200a8 8 0 0 1-8-8V128a8 8 0 0 1 16 0v64a8 8 0 0 1-8 8zM856 240h-64a8 8 0 0 1 0-16h64a8 8 0 0 1 0 16z" fill="#263238" p-id="9036"></path><path d="M824 272a8 8 0 0 1-8-8v-64a8 8 0 0 1 16 0v64a8 8 0 0 1-8 8z" fill="#263238" p-id="9037"></path><path d="M184 328H64a8 8 0 0 1 0-16h120a8 8 0 0 1 0 16z" fill="#263238" p-id="9038"></path><path d="M32 328H16a8 8 0 0 1 0-16h16a8 8 0 0 1 0 16z" fill="#263238" p-id="9039"></path><path d="M960 488h-120a8 8 0 0 1 0-16H960a8 8 0 0 1 0 16z" fill="#263238" p-id="9040"></path><path d="M1008 488h-16a8 8 0 0 1 0-16h16a8 8 0 0 1 0 16z" fill="#263238" p-id="9041"></path></svg>